<svg width="1080" height="1080" viewBox="0 0 1080 1080" fill="none" xmlns="http://www.w3.org/2000/svg">
<rect width="1080" height="1080" rx="320" fill="url(#paint0_linear_20_95)"/>
<path d="M533.84 564.678H459.68V391.878C459.68 351.558 437.84 343.398 411.2 373.638L392 395.478L229.52 580.278C207.2 605.478 216.56 626.118 250.16 626.118H324.32V798.918C324.32 839.238 346.16 847.398 372.8 817.158L392 795.318L554.48 610.518C576.8 585.318 567.44 564.678 533.84 564.678Z" fill="white"/>
<path d="M829.04 454.278H754.88V281.478C754.88 241.158 733.04 232.998 706.4 263.238L687.2 285.078L524.72 469.878C502.4 495.078 511.76 515.718 545.36 515.718H619.52V688.518C619.52 728.838 641.36 736.998 668 706.758L687.2 684.918L849.68 500.118C872 474.918 862.64 454.278 829.04 454.278Z" fill="white"/>
<defs>
<linearGradient id="paint0_linear_20_95" x1="540" y1="0" x2="540" y2="1080" gradientUnits="userSpaceOnUse">
<stop stop-color="#F4C015"/>
<stop offset="1" stop-color="#FF9822"/>
</linearGradient>
</defs>
</svg>
