<svg width="778" height="286" viewBox="0 0 778 286" fill="none" xmlns="http://www.w3.org/2000/svg">
<path d="M52.92 227.48C47.32 227.48 43.08 226.6 40.2 224.84C37.48 222.92 35.64 219.96 34.68 215.96L3.48 76.76C3 74.52 2.44 72.52 1.8 70.76C1.16 69 0.84 67.32 0.84 65.72C0.84 63.48 1.72 61.72 3.48 60.44C5.4 59.16 9.08 58.52 14.52 58.52H29.16C33.8 58.52 37.64 59.08 40.68 60.2C43.72 61.16 45.56 63.72 46.2 67.88L65.4 182.6H66.36L86.28 67.88C87.08 63.72 88.84 61.16 91.56 60.2C94.28 59.08 98.92 58.52 105.48 58.52H122.52C128.28 58.52 132.76 59.08 135.96 60.2C139.32 61.32 141.32 63.88 141.96 67.88L161.16 182.6H162.12L182.04 67.88C182.84 63.72 184.52 61.16 187.08 60.2C189.64 59.08 193.56 58.52 198.84 58.52H210.12C215.4 58.52 218.92 59.16 220.68 60.44C222.6 61.72 223.56 63.48 223.56 65.72C223.56 67.32 223.32 69 222.84 70.76C222.36 72.52 221.72 74.52 220.92 76.76L189.96 215.96C189 219.96 187.08 222.92 184.2 224.84C181.48 226.6 177.32 227.48 171.72 227.48H148.44C142.52 227.48 138.12 226.6 135.24 224.84C132.52 222.92 130.76 219.72 129.96 215.24L112.68 120.2H111.72L94.68 215.24C93.88 219.72 92.04 222.92 89.16 224.84C86.44 226.6 82.12 227.48 76.2 227.48H52.92ZM252.398 227.48C245.678 227.48 240.798 226.6 237.758 224.84C234.718 222.92 233.198 220.36 233.198 217.16V68.84C233.198 65.64 234.718 63.16 237.758 61.4C240.798 59.48 245.678 58.52 252.398 58.52H258.398C265.118 58.52 269.998 59.48 273.038 61.4C276.078 63.16 277.598 65.64 277.598 68.84V217.16C277.598 220.36 276.078 222.92 273.038 224.84C269.998 226.6 265.118 227.48 258.398 227.48H252.398ZM608.648 227.48C601.928 227.48 597.048 226.6 594.008 224.84C590.968 222.92 589.448 220.36 589.448 217.16V68.84C589.448 65.64 590.968 63.16 594.008 61.4C597.048 59.48 601.928 58.52 608.648 58.52H614.648C621.368 58.52 626.248 59.48 629.288 61.4C632.328 63.16 633.848 65.64 633.848 68.84V217.16C633.848 220.36 632.328 222.92 629.288 224.84C626.248 226.6 621.368 227.48 614.648 227.48H608.648ZM708.536 227.48C701.816 227.48 696.936 226.6 693.896 224.84C690.856 222.92 689.336 220.36 689.336 217.16V100.04H657.176C650.776 100.04 647.576 95.24 647.576 85.64V73.4C647.576 63.8 650.776 59 657.176 59H765.896C772.296 59 775.496 63.8 775.496 73.4V85.64C775.496 95.24 772.296 100.04 765.896 100.04H733.736V217.16C733.736 220.36 732.216 222.92 729.176 224.84C726.136 226.6 721.256 227.48 714.536 227.48H708.536Z" fill="black"/>
<path d="M431.1 153.199H400.2V81.199C400.2 64.399 391.1 60.999 380 73.599L372 82.699L304.3 159.699C295 170.199 298.9 178.799 312.9 178.799H343.8V250.799C343.8 267.599 352.9 270.999 364 258.399L372 249.299L439.7 172.299C449 161.799 445.1 153.199 431.1 153.199Z" fill="url(#paint0_linear_20_66)"/>
<path d="M554.1 107.199H523.2V35.199C523.2 18.399 514.1 14.999 503 27.599L495 36.699L427.3 113.699C418 124.199 421.9 132.799 435.9 132.799H466.8V204.799C466.8 221.599 475.9 224.999 487 212.399L495 203.299L562.7 126.299C572 115.799 568.1 107.199 554.1 107.199Z" fill="url(#paint1_linear_20_66)"/>
<defs>
<linearGradient id="paint0_linear_20_66" x1="372" y1="65.9902" x2="372" y2="266.008" gradientUnits="userSpaceOnUse">
<stop stop-color="#F4C015"/>
<stop offset="1" stop-color="#FF9822"/>
</linearGradient>
<linearGradient id="paint1_linear_20_66" x1="495" y1="19.9902" x2="495" y2="220.008" gradientUnits="userSpaceOnUse">
<stop stop-color="#F4C015"/>
<stop offset="1" stop-color="#FF9822"/>
</linearGradient>
</defs>
</svg>
